<?xml version="1.0" standalone="no"?>
<!DOCTYPE svg PUBLIC "-//W3C//DTD SVG 20010904//EN"
 "http://www.w3.org/TR/2001/REC-SVG-20010904/DTD/svg10.dtd">
<svg version="1.0" xmlns="http://www.w3.org/2000/svg"
 width="650.000000pt" height="650.000000pt" viewBox="0 0 650.000000 650.000000"
 preserveAspectRatio="xMidYMid meet">

<g transform="translate(0.000000,650.000000) scale(0.100000,-0.100000)"
fill="#000000" stroke="none">
<path d="M1872 6295 c-94 -48 -129 -122 -187 -394 -34 -158 -59 -224 -102
-272 -50 -55 -85 -64 -217 -53 -61 5 -169 9 -241 9 -110 0 -140 -3 -197 -23
-73 -25 -110 -59 -101 -92 8 -30 62 -68 221 -156 181 -100 249 -153 275 -216
27 -66 18 -89 -45 -123 -114 -61 -158 -115 -193 -239 -49 -170 68 -412 336
-691 l111 -115 -50 -50 c-60 -59 -77 -103 -69 -177 7 -72 50 -142 147 -241
126 -130 250 -199 378 -209 49 -5 62 -3 62 8 0 8 -15 59 -35 114 -59 172 -137
515 -149 655 -17 189 -17 341 -2 460 23 182 26 190 88 227 76 46 250 126 341
156 234 79 407 73 520 -17 79 -63 147 -257 147 -422 0 -128 -22 -193 -115
-332 -41 -62 -80 -130 -86 -151 -17 -57 -8 -308 13 -347 26 -47 77 -91 127
-110 90 -33 540 -29 575 6 22 22 8 104 -42 240 -135 364 -186 569 -180 716 5
116 30 170 110 234 217 175 555 262 753 194 53 -18 68 -33 134 -139 228 -363
244 -696 60 -1261 -30 -94 -38 -129 -29 -138 6 -6 45 -11 93 -11 70 0 91 4
140 28 154 76 263 266 274 478 6 100 -5 157 -36 193 -21 24 -78 53 -123 61
l-37 7 127 151 c70 84 151 174 181 202 90 84 111 155 72 241 -39 86 -160 189
-327 277 -51 27 -106 64 -125 83 -50 52 -46 100 23 256 80 178 92 224 92 353
1 121 -9 153 -56 188 -24 18 -31 19 -73 7 -47 -13 -141 -73 -275 -173 -269
-202 -356 -179 -594 156 -180 254 -306 391 -402 438 -73 35 -85 23 -129 -116
-25 -81 -45 -126 -67 -151 -63 -72 -161 -97 -269 -69 -80 20 -117 42 -257 154
-62 50 -140 106 -174 126 -85 50 -199 86 -288 92 -67 4 -81 2 -128 -22z"/>
<path d="M2142 4465 c-50 -63 -51 -147 -3 -207 18 -22 25 -23 165 -25 l145 -2
20 26 c49 61 49 146 2 204 -18 22 -26 24 -163 27 l-145 4 -21 -27z"/>
<path d="M3677 4483 c-57 -9 -91 -105 -62 -179 27 -71 42 -76 200 -72 130 3
138 4 156 26 48 60 47 144 -2 206 -20 26 -22 26 -142 25 -67 -1 -135 -4 -150
-6z"/>
<path d="M2657 3016 c-76 -21 -101 -45 -105 -99 -8 -123 160 -278 363 -333 33
-9 114 -19 181 -21 140 -6 234 12 349 69 83 40 224 168 254 232 25 51 27 92 5
100 -29 11 -259 36 -470 51 -257 18 -511 18 -577 1z"/>
<path d="M3853 2621 c-24 -43 -139 -196 -188 -250 -287 -325 -590 -436 -840
-309 -66 34 -167 109 -235 174 l-55 53 -5 -361 -5 -361 -120 -22 c-152 -28
-263 -59 -323 -89 -70 -35 -138 -104 -151 -151 -24 -88 -7 -281 33 -377 21
-50 20 -55 -11 -63 -45 -11 -338 -143 -483 -218 -338 -174 -644 -373 -905
-589 -11 -9 -31 -26 -45 -37 l-25 -20 3003 -1 3002 0 0 213 0 213 -50 82
c-115 186 -303 340 -545 447 -252 111 -637 194 -1170 250 -82 8 -155 17 -161
19 -7 3 -7 30 -1 87 15 145 -8 321 -54 410 -37 74 -94 125 -177 159 -75 32
-76 32 -161 21 -47 -6 -125 -19 -172 -29 l-87 -19 -6 56 c-7 72 -25 379 -34
588 l-7 162 -22 -38z"/>
</g>
</svg>
