<?xml version="1.0" standalone="no"?>
<!DOCTYPE svg PUBLIC "-//W3C//DTD SVG 20010904//EN"
 "http://www.w3.org/TR/2001/REC-SVG-20010904/DTD/svg10.dtd">
<svg version="1.0" xmlns="http://www.w3.org/2000/svg"
 width="650.000000pt" height="650.000000pt" viewBox="0 0 650.000000 650.000000"
 preserveAspectRatio="xMidYMid meet">

<g transform="translate(0.000000,650.000000) scale(0.100000,-0.100000)"
fill="#000000" stroke="none">
<path d="M0 3250 l0 -3250 1365 0 1364 0 -4 28 c-10 55 -25 797 -25 1216 l0
433 33 9 32 10 3 74 c1 41 9 296 16 565 l13 490 -32 40 c-77 98 -170 283 -224
447 l-32 96 -118 -5 c-171 -8 -264 17 -298 80 -15 26 -18 55 -17 167 1 121 5
149 37 270 71 266 89 292 212 298 70 4 75 5 70 26 -50 222 -54 283 -30 431 75
462 327 777 701 875 43 11 95 20 116 20 78 0 312 -103 381 -168 l29 -27 -6 25
c-3 14 -9 48 -15 75 -5 28 -13 58 -16 67 -6 16 -3 17 26 11 46 -8 195 -61 244
-85 128 -65 287 -207 366 -328 95 -143 171 -338 208 -534 23 -115 45 -369 40
-438 l-4 -43 71 0 c91 0 106 -13 138 -114 42 -134 58 -256 54 -398 -6 -201
-35 -245 -169 -259 -58 -5 -214 13 -262 31 -12 5 -30 -24 -79 -127 -67 -139
-112 -215 -182 -308 l-42 -55 12 -296 c7 -163 15 -416 19 -562 l8 -267 54 -20
c29 -11 57 -20 62 -20 28 0 43 -542 31 -1115 -5 -259 -12 -503 -16 -542 l-6
-73 1186 0 1186 0 0 3250 0 3250 -3250 0 -3250 0 0 -3250z"/>
<path d="M3913 4490 c-89 -18 -187 -90 -225 -164 -11 -23 -21 -42 -23 -43 -1
-2 -26 10 -56 26 -94 51 -158 64 -283 59 -90 -4 -127 -11 -192 -35 l-82 -29
-39 50 c-71 92 -188 131 -303 102 -237 -61 -308 -352 -125 -514 119 -105 291
-97 405 17 64 64 90 128 90 218 l0 54 47 21 c152 67 326 64 450 -9 57 -33 65
-45 69 -105 9 -108 81 -215 179 -266 72 -37 188 -42 266 -13 78 30 141 88 180
166 30 61 31 70 27 152 -3 73 -9 97 -33 141 -68 126 -217 198 -352 172z m148
-75 c77 -28 148 -98 164 -166 l6 -26 -68 15 c-83 17 -253 11 -367 -13 -43 -9
-79 -15 -81 -13 -2 2 3 20 10 42 15 42 57 99 96 128 62 47 162 60 240 33z
m-1174 -33 c37 -19 119 -99 110 -108 -2 -2 -64 1 -138 7 -74 6 -169 8 -212 4
-74 -6 -78 -5 -69 12 22 40 83 85 141 104 40 13 124 3 168 -19z m-98 -143 c95
-6 183 -9 196 -7 29 6 35 -7 35 -70 0 -90 -64 -184 -147 -219 -54 -22 -146
-17 -203 12 -100 51 -157 184 -120 281 9 22 15 26 39 21 15 -3 106 -11 200
-18z m1451 -67 c0 -160 -133 -284 -290 -269 -125 11 -224 107 -237 229 l-5 53
183 3 c101 1 216 6 254 11 39 5 76 9 83 10 8 1 12 -13 12 -37z"/>
<path d="M3036 3485 c-111 -48 -179 -92 -243 -156 -51 -51 -107 -128 -99 -136
2 -2 24 8 49 22 51 29 254 102 360 130 37 10 67 22 67 28 0 13 -41 130 -49
139 -4 4 -42 -8 -85 -27z"/>
<path d="M3500 3486 c0 -13 -3 -43 -6 -68 l-6 -44 93 -13 c113 -16 242 -52
311 -87 l51 -26 -39 47 c-71 88 -202 173 -309 201 -75 21 -95 18 -95 -10z"/>
<path d="M3404 3272 c-37 -14 -51 -14 -114 -2 -86 16 -282 2 -346 -25 l-39
-16 60 -56 c164 -154 338 -217 498 -179 117 27 254 104 359 203 46 42 47 44
25 52 -99 38 -367 52 -443 23z"/>
<path d="M3219 2749 c-181 -205 -171 -185 -102 -206 116 -36 471 -18 543 27
11 7 -19 43 -136 166 -83 87 -155 159 -160 161 -6 2 -71 -65 -145 -148z"/>
</g>
</svg>
