<?xml version="1.0" standalone="no"?>
<!DOCTYPE svg PUBLIC "-//W3C//DTD SVG 20010904//EN"
 "http://www.w3.org/TR/2001/REC-SVG-20010904/DTD/svg10.dtd">
<svg version="1.0" xmlns="http://www.w3.org/2000/svg"
 width="650.000000pt" height="650.000000pt" viewBox="0 0 650.000000 650.000000"
 preserveAspectRatio="xMidYMid meet">

<g transform="translate(0.000000,650.000000) scale(0.100000,-0.100000)"
fill="#000000" stroke="none">
<path d="M3125 6024 c-234 -18 -431 -53 -533 -96 -304 -126 -736 -566 -975
-993 -88 -157 -196 -423 -208 -515 -4 -24 -2 -25 36 -22 51 5 245 45 357 75
48 13 85 20 82 16 -3 -5 -81 -70 -174 -145 -94 -75 -170 -137 -170 -139 0 -1
75 17 168 41 92 25 213 56 270 71 l102 26 0 34 c0 21 5 33 14 33 42 0 298 101
534 211 45 22 85 39 87 39 19 0 -126 -203 -172 -240 -83 -68 -112 -90 -138
-103 -48 -26 -8 -20 95 14 214 70 442 171 849 376 178 90 326 161 329 158 6
-6 -39 -177 -75 -283 -28 -83 -96 -227 -113 -237 -5 -3 -10 -11 -10 -16 0 -28
245 132 633 414 98 71 181 126 185 122 20 -19 5 -787 -16 -806 -4 -4 -158 -17
-342 -29 -298 -19 -419 -31 -471 -46 -8 -2 -23 -20 -32 -40 -17 -35 -17 -36
10 -86 49 -90 143 -140 295 -160 167 -21 326 10 503 96 113 56 275 178 323
244 l23 32 -67 0 c-59 0 -65 2 -60 17 19 49 67 262 82 363 20 136 22 405 5
530 -27 189 -100 422 -171 540 -159 266 -428 428 -804 485 -100 15 -361 26
-451 19z"/>
<path d="M2715 3974 c-11 -1 -211 -8 -445 -14 -234 -7 -427 -14 -430 -17 -9
-9 128 -131 187 -165 173 -102 415 -157 632 -145 114 6 174 25 231 74 48 41
100 140 100 189 0 32 -7 38 -84 69 -34 13 -132 18 -191 9z"/>
<path d="M3300 3100 c-43 -105 -103 -108 -171 -9 l-16 24 -54 -18 c-68 -21
-190 -92 -249 -145 l-45 -39 38 -46 c100 -122 277 -197 465 -197 137 0 271 53
332 130 31 40 70 113 70 132 0 14 -120 119 -169 149 -36 22 -125 49 -162 49
-20 0 -30 -7 -39 -30z"/>
<path d="M2738 1908 c6 -218 -26 -391 -88 -476 -39 -54 -148 -144 -255 -209
-234 -142 -577 -238 -1015 -283 -155 -17 -242 -62 -325 -170 -109 -142 -184
-389 -210 -692 l-7 -78 2571 0 2571 0 0 33 c0 50 -28 273 -45 366 -34 177 -98
336 -170 419 -68 79 -89 86 -481 163 -670 131 -948 217 -1129 351 -33 24 -72
62 -87 84 -45 65 -72 201 -84 422 -8 140 4 129 -123 107 -150 -27 -403 -38
-580 -26 -203 14 -310 33 -438 76 -55 19 -103 35 -105 35 -1 0 -2 -55 0 -122z"/>
</g>
</svg>
