<?xml version="1.0" standalone="no"?>
<!DOCTYPE svg PUBLIC "-//W3C//DTD SVG 20010904//EN"
 "http://www.w3.org/TR/2001/REC-SVG-20010904/DTD/svg10.dtd">
<svg version="1.0" xmlns="http://www.w3.org/2000/svg"
 width="800.000000pt" height="800.000000pt" viewBox="0 0 800.000000 800.000000"
 preserveAspectRatio="xMidYMid meet">

<g transform="translate(0.000000,800.000000) scale(0.100000,-0.100000)"
fill="#000000" stroke="none">
<path d="M3745 7150 c-259 -30 -512 -122 -700 -255 -89 -63 -229 -202 -282
-280 -59 -88 -109 -193 -140 -292 -23 -78 -26 -105 -27 -243 -1 -124 4 -177
22 -264 71 -346 186 -689 309 -929 l46 -89 -12 -141 c-6 -78 -14 -187 -16
-242 -21 -425 -26 -559 -25 -695 l1 -155 27 -23 c100 -86 305 -196 445 -241
168 -53 269 -66 512 -66 264 0 359 14 580 86 178 58 315 124 332 159 6 14 19
69 28 123 19 115 22 453 5 612 -6 55 -15 150 -20 210 -5 61 -21 175 -35 255
-13 80 -25 148 -25 152 0 9 86 2 235 -19 61 -8 124 -17 141 -18 55 -5 345 -85
512 -140 196 -66 409 -149 550 -216 57 -26 102 -44 100 -40 -2 5 -55 66 -118
136 -116 129 -282 287 -398 378 -35 27 -60 52 -57 55 3 3 42 16 86 29 356 103
665 281 923 532 104 102 244 267 234 277 -3 2 -63 -3 -134 -13 -101 -14 -202
-18 -469 -18 -466 0 -595 17 -783 105 -92 43 -202 108 -202 118 0 4 62 8 138
8 273 2 497 74 734 236 85 58 318 274 318 295 0 5 -32 -1 -72 -15 -152 -51
-258 -66 -473 -66 -172 0 -215 3 -305 23 -197 42 -357 116 -709 325 -303 181
-410 233 -580 282 -194 56 -509 85 -696 64z m-580 -1159 c39 -11 146 -47 238
-81 218 -79 308 -100 425 -100 120 0 207 18 427 90 243 80 356 109 446 117
l76 6 6 -89 c32 -445 7 -815 -89 -1334 -27 -141 -93 -437 -119 -528 l-16 -52
-47 24 c-132 67 -336 116 -477 116 l-88 0 5 -50 c5 -49 5 -50 -23 -50 -16 0
-29 -5 -29 -10 0 -6 20 -32 45 -59 39 -42 124 -94 190 -116 20 -6 20 -6 0 -21
-32 -24 -170 -63 -243 -70 -81 -7 -185 13 -274 53 l-61 27 62 28 c83 37 145
82 176 129 l25 39 -71 0 -72 0 5 51 5 52 -82 -7 c-102 -7 -244 -44 -353 -89
l-82 -35 -10 36 c-86 322 -165 749 -202 1097 -15 134 -18 756 -5 819 l8 39 67
-7 c37 -3 99 -15 137 -25z"/>
<path d="M3273 5121 c-111 -69 -84 -233 42 -257 51 -9 84 3 127 45 33 34 38
45 38 86 0 81 -49 135 -129 142 -34 3 -54 -1 -78 -16z"/>
<path d="M4222 5121 c-94 -60 -94 -184 0 -241 60 -37 130 -21 182 40 20 25 26
42 26 81 0 44 -5 55 -38 91 -33 35 -45 41 -88 45 -37 3 -57 -1 -82 -16z"/>
<path d="M4436 3103 c3 -21 11 -63 18 -94 l11 -57 92 28 c51 15 113 35 140 45
l47 18 -54 19 c-63 22 -191 62 -233 72 -28 7 -28 6 -21 -31z"/>
<path d="M3092 3088 c-68 -22 -120 -44 -115 -48 14 -13 204 -72 210 -66 6 6
35 148 31 152 -2 1 -58 -16 -126 -38z"/>
<path d="M4901 2533 c5 -37 24 -243 44 -458 34 -369 55 -594 125 -1347 17
-178 35 -375 40 -438 16 -185 21 -234 26 -257 l4 -23 1105 0 c718 0 1105 3
1105 10 0 42 -121 552 -181 760 -88 305 -97 329 -176 445 -280 408 -593 708
-992 949 -131 80 -347 187 -466 230 -55 21 -105 43 -110 51 -16 20 -299 99
-501 140 l-30 6 7 -68z"/>
<path d="M2584 2515 c-383 -106 -778 -309 -1104 -565 -125 -98 -379 -350 -474
-470 -257 -325 -453 -721 -566 -1145 -27 -101 -70 -295 -70 -316 0 -5 461 -9
1094 -9 l1094 0 10 28 c5 15 17 121 26 237 9 116 34 433 56 705 71 887 109
1363 116 1468 l7 102 -34 -1 c-19 0 -88 -15 -155 -34z"/>
</g>
</svg>
