<?xml version="1.0" standalone="no"?>
<!DOCTYPE svg PUBLIC "-//W3C//DTD SVG 20010904//EN"
 "http://www.w3.org/TR/2001/REC-SVG-20010904/DTD/svg10.dtd">
<svg version="1.0" xmlns="http://www.w3.org/2000/svg"
 width="800.000000pt" height="800.000000pt" viewBox="0 0 800.000000 800.000000"
 preserveAspectRatio="xMidYMid meet">

<g transform="translate(0.000000,800.000000) scale(0.100000,-0.100000)"
fill="#000000" stroke="none">
<path d="M0 4000 l0 -4000 3998 0 3997 0 1 4000 1 4000 -3999 0 -3998 0 0
-4000z m3210 1406 c0 -3 -4 -16 -10 -31 -12 -32 8 -85 41 -109 76 -53 190 28
161 114 l-11 30 489 0 489 0 -11 -30 c-7 -23 -7 -39 2 -61 47 -113 203 -81
202 41 0 3 -3 15 -7 28 l-6 22 195 0 196 0 0 -193 c0 -660 -152 -1170 -438
-1466 l-64 -66 -5 -605 c-4 -461 10 -2026 21 -2189 1 -31 -36 -57 -141 -101
-256 -107 -558 -118 -818 -31 -47 16 -88 30 -89 32 -2 2 -18 245 -35 539 -17
294 -38 648 -46 785 -9 138 -20 491 -25 785 -5 294 -11 599 -14 677 l-4 142
-62 72 c-266 308 -400 787 -400 1427 l0 192 195 0 c107 0 195 -2 195 -4z
m-360 -1269 c11 -37 47 -121 80 -187 69 -141 82 -205 56 -275 -10 -24 -27 -56
-38 -71 -28 -35 -113 -74 -164 -74 -59 0 -142 45 -179 98 -27 40 -30 51 -30
125 1 79 2 85 57 193 56 111 107 257 128 369 21 116 21 116 46 0 13 -60 33
-140 44 -178z m2180 180 c29 -148 57 -232 122 -363 47 -95 61 -135 65 -183 8
-80 -15 -139 -70 -186 -91 -78 -202 -73 -288 14 -46 45 -69 96 -69 151 0 45
21 103 81 225 56 116 106 275 124 398 4 26 10 46 12 43 3 -2 13 -47 23 -99z"/>
<path d="M3590 4261 c-69 -23 -130 -52 -130 -63 0 -4 12 -10 28 -14 86 -19 86
-20 96 -52 5 -18 27 -53 48 -77 136 -154 401 -124 490 56 26 51 31 56 78 68
27 7 50 16 50 19 0 4 -27 18 -61 31 -151 58 -248 67 -297 26 -37 -31 -49 -31
-79 -3 -33 31 -145 36 -223 9z"/>
</g>
</svg>
