<?xml version="1.0" standalone="no"?>
<!DOCTYPE svg PUBLIC "-//W3C//DTD SVG 20010904//EN"
 "http://www.w3.org/TR/2001/REC-SVG-20010904/DTD/svg10.dtd">
<svg version="1.0" xmlns="http://www.w3.org/2000/svg"
 width="650.000000pt" height="650.000000pt" viewBox="0 0 650.000000 650.000000"
 preserveAspectRatio="xMidYMid meet">

<g transform="translate(0.000000,650.000000) scale(0.100000,-0.100000)"
fill="#000000" stroke="none">
<path d="M2889 6189 c-53 -4 -146 -19 -206 -32 -555 -125 -857 -553 -948
-1342 -30 -259 -36 -768 -10 -867 5 -21 12 -27 33 -25 15 0 49 -2 76 -7 43 -7
48 -6 42 9 -17 45 -18 315 -1 475 45 437 134 735 288 965 49 74 198 223 250
250 l37 20 145 -75 146 -75 122 0 c147 1 184 13 358 126 197 126 252 135 381
59 371 -220 615 -619 752 -1233 27 -120 59 -330 71 -469 4 -43 10 -78 13 -78
21 0 82 26 86 37 16 42 28 255 22 408 -27 719 -191 1198 -514 1507 -219 209
-483 319 -836 348 -141 11 -165 11 -307 -1z"/>
<path d="M3690 4316 c-112 -24 -216 -102 -260 -196 l-23 -49 -40 26 c-173 109
-427 112 -659 9 -12 -6 -21 0 -32 22 -24 47 -112 119 -174 142 -81 31 -196 25
-275 -14 -223 -109 -256 -433 -60 -582 70 -54 146 -77 233 -72 93 6 153 31
218 92 72 67 106 148 107 248 l0 77 55 25 c101 45 175 59 290 53 115 -5 181
-24 260 -77 44 -29 45 -30 56 -110 21 -146 95 -250 223 -313 58 -28 74 -31
156 -32 86 0 96 2 167 38 89 44 136 92 182 187 28 58 31 75 31 155 0 82 -3 97
-32 155 -57 117 -160 197 -282 220 -64 12 -70 12 -141 -4z m205 -95 c112 -53
175 -152 175 -276 0 -83 -23 -145 -76 -204 -84 -93 -215 -127 -337 -85 -61 21
-132 84 -164 148 -30 60 -41 159 -24 223 17 61 70 134 125 171 60 40 94 50
176 51 52 1 77 -5 125 -28z m-1388 -26 c190 -93 207 -358 31 -479 -52 -36 -65
-40 -136 -44 -99 -6 -161 19 -226 88 -69 74 -91 167 -62 264 52 171 232 249
393 171z"/>
<path d="M3653 4050 c-30 -27 -36 -53 -23 -101 20 -75 80 -116 129 -89 43 23
68 161 35 194 -23 24 -114 21 -141 -4z"/>
<path d="M2368 4070 c-54 -10 -78 -35 -78 -82 0 -109 95 -181 149 -112 27 34
46 129 33 159 -13 29 -57 43 -104 35z"/>
<path d="M2660 2911 c0 -6 24 -35 54 -66 38 -38 79 -67 133 -93 78 -37 78 -37
208 -37 122 1 135 3 213 33 84 32 249 112 286 138 20 13 19 14 -10 14 -99 0
-380 -47 -448 -75 -34 -14 -53 -10 -256 53 -110 34 -180 47 -180 33z"/>
<path d="M4058 2029 c-157 -80 -406 -169 -586 -210 -115 -26 -335 -35 -472
-20 -210 24 -451 91 -603 167 -38 20 -70 34 -71 32 -3 -3 -57 -565 -56 -579 0
-4 -39 -10 -87 -14 -390 -32 -760 -199 -1058 -477 -210 -196 -437 -533 -559
-830 -20 -48 -36 -89 -36 -92 0 -3 1283 -6 2850 -6 l2850 0 -6 28 c-51 223
-204 496 -386 688 -333 350 -898 641 -1526 784 -68 15 -127 32 -132 36 -4 5
-20 124 -34 264 -15 140 -28 255 -29 256 -1 1 -28 -11 -59 -27z"/>
</g>
</svg>
